<?xml version="1.0" encoding="UTF-8"?>
<svg id="Layer_1" data-name="Layer 1" xmlns="http://www.w3.org/2000/svg" viewBox="0 0 626 626">
  <defs>
    <style>
      .cls-1 {
        fill: #efd9a8;
      }

      .cls-2 {
        fill: #352112;
      }
    </style>
  </defs>
  <rect class="cls-1" width="626" height="626" rx="141.03" ry="141.03"/>
  <g>
    <path class="cls-2" d="M-.19,278.83l87.84,4.84c7.08.46,12.22,3.82,19.35,4.29,33.08,2.2,68.67-21.65,97.85-35.38,12.99-6.11,33.63-16.9,47.76-16.22,11.01.53,20.5,6.56,30.87,9.42,21.73,6,47.55,4.85,70.11,7.26,13.72,1.47,27.23,4.64,40.9,6.38,32.53,4.13,65.57,4.38,98.24,7.06,8.73.71,17.88,1.07,23.66,8.58,7.17,9.33,2.15,20.73-6.78,26.56-15.19,9.93-53.05,5.11-71.7,5.67-10.61.32-20.87,1.63-31.7,1.12-6.73-.32-14.42-2.22-20.94-2.21-11.96,0-24.1,3.32-36.52,2.72-7.24-.35-17.14-2.64-24.15-1.57-2,.31-6.52,4.16-5.43,5.88,14.26,8.88,38.76,31.11,38.48,49.15-.2,12.9-14.27,25.55-25.29,30.37.5,1.68,1.83,2.71,2.56,4.68,4.41,11.87-6.47,26.26-15.21,33.44-15.28,12.56-40.66,3.47-55.95-5.26-5.66-3.23-11.94-7.29-15.66-12.73l4.19-3.48c-18.22.78-36.17-2.63-53.72-6.98l17.19,7.79c-4.07,5.1-10.66,11.78-8.76,18.97,1.12,4.24,10.91,11.16,14.72,13.75,13.13,8.91,28.36,16.32,44.02,19.38,1.21.74-2.58,3.11-3.06,3.41-17.1,10.56-39.13-2.19-53.85-12.04-6.78-4.53-13.27-11.59-8.64-20.1-17.15,2.31-34.23,3.79-51.16-.7-15.07-3.99-29.08-12.35-38.84-24.56l1.88,5.36-33.24-1c-1.39.88-3.6,28.54-7.04,31.91-2.74,2.7-12.63.86-16.38.76-10.61-.27-21.14-.69-31.7-1.07-7.96-.29-15.97-.35-23.93-.52v-164.94ZM316.79,347.6h-9.4c-2.02,0-8.38,2.03-10.61,2.82-5.06,1.79-9.55,4.82-14.55,6.71l-27.22-11.42c-.13-.56,4.78-5.71,5.59-6.76,11.07-14.49,17.55-31.36,14.82-49.91-1.26-.08-.95-.18-1.07.79-.24,1.84.17,4,0,5.91-2.04,22.12-13.56,48.43-37.6,52.92,4.19-12.04,6.3-24.33,1.32-36.51-.26-.64-.55-2.15-1.32-2.17,2.87,14.12,1.26,28.31-4.84,41.36,19.8,3.53,55.97,5.94,68.99,23.15s-1.44,38.01-13.92,50.99c-.65.64-.01,2.12.53,2.13.46.01,6.2-5.03,7.01-5.87,7.67-8.01,14.47-20.04,15.3-31.19,1-.24,1.04.34,1.52.89,1.55,1.8,2.73,4.57,4.28,6.46l6.01,11.98c.05-4.59-1.61-9.69-3.66-13.79-2.52-5.05-5.95-9.98-8.77-15.41-5.31-10.24-12.29-16.3-22.48-21.57,8.38-5.54,18.54-6.92,27.79-10.34.69-.25,2.27-.36,2.28-1.21Z"/>
    <path class="cls-2" d="M301.74,440.01c-1.78,6.77-7.04,13.83-13.25,17.1-15.24,8.01-37.56-1.52-51.58-8.95-5.64-2.98-22.31-12.77-25.34-17.64s1.61-14.08,6.89-16.03c4.71-1.74,19.3-.52,24.41.85,2.26.61,10.44,8.17,13.46,10.18,12.99,8.62,29.6,15.23,45.41,14.49Z"/>
  </g>
</svg>