<?xml version="1.0" encoding="UTF-8"?>
<svg id="Layer_1" data-name="Layer 1" xmlns="http://www.w3.org/2000/svg" viewBox="0 0 777.57 348.92">
  <path d="M0,63.55l131.35,7.24c10.59.68,18.27,5.71,28.93,6.41,49.46,3.29,102.68-32.38,146.32-52.9C326.03,15.16,356.89-.97,378.02.05c16.46.79,30.65,9.81,46.16,14.09,32.5,8.97,71.11,7.25,104.83,10.85,20.51,2.19,40.72,6.94,61.16,9.53,48.65,6.17,98.05,6.56,146.91,10.55,13.06,1.07,26.74,1.59,35.38,12.83,10.72,13.94,3.21,30.99-10.13,39.72-22.72,14.85-79.32,7.64-107.21,8.47-15.86.48-31.21,2.44-47.4,1.67-10.06-.48-21.56-3.32-31.31-3.31-17.88.01-36.03,4.96-54.61,4.07-10.83-.52-25.63-3.95-36.11-2.35-3,.46-9.76,6.23-8.12,8.8,21.32,13.27,57.96,46.53,57.54,73.49-.3,19.3-21.33,38.21-37.82,45.41.75,2.52,2.74,4.05,3.83,6.99,6.59,17.75-9.67,39.27-22.74,50.01-22.85,18.78-60.8,5.2-83.66-7.87-8.46-4.84-17.85-10.89-23.41-19.03l6.27-5.2c-27.24,1.16-54.08-3.93-80.33-10.44l25.7,11.65c-6.09,7.63-15.94,17.62-13.1,28.36,1.67,6.34,16.31,16.69,22.01,20.56,19.63,13.32,42.4,24.4,65.82,28.98,1.81,1.11-3.85,4.65-4.58,5.1-25.57,15.79-58.5-3.28-80.53-18-10.13-6.77-19.85-17.33-12.92-30.05-25.65,3.46-51.18,5.66-76.49-1.04-22.54-5.97-43.48-18.47-58.07-36.72l2.82,8.02-49.7-1.49c-2.07,1.31-5.39,42.67-10.52,47.72-4.1,4.03-18.88,1.28-24.5,1.14-15.86-.4-31.61-1.03-47.4-1.61-11.9-.44-23.88-.52-35.78-.77V63.55ZM473.99,166.38h-14.06c-3.02,0-12.53,3.04-15.86,4.22-7.57,2.68-14.27,7.2-21.76,10.04l-40.71-17.08c-.19-.84,7.15-8.54,8.36-10.11,16.55-21.66,26.24-46.89,22.17-74.63-1.88-.12-1.42-.27-1.6,1.19-.35,2.75.26,5.99,0,8.84-3.06,33.08-20.28,72.41-56.22,79.14,6.27-18.01,9.41-36.38,1.97-54.59-.39-.96-.83-3.22-1.97-3.24,4.29,21.11,1.88,42.33-7.24,61.85,29.61,5.28,83.69,8.88,103.16,34.62,19.88,26.27-2.15,56.83-20.82,76.25-.97.96-.02,3.17.8,3.19.68.02,9.27-7.51,10.48-8.77,11.47-11.97,21.64-29.97,22.87-46.64,1.5-.35,1.56.51,2.27,1.34,2.32,2.69,4.08,6.83,6.41,9.66l8.98,17.92c.08-6.87-2.41-14.49-5.47-20.63-3.77-7.55-8.9-14.92-13.11-23.04-7.95-15.31-18.38-24.38-33.61-32.25,12.52-8.29,27.73-10.35,41.56-15.46,1.03-.38,3.39-.54,3.41-1.81Z"/>
  <path d="M451.49,304.56c-2.66,10.13-10.53,20.69-19.82,25.56-22.79,11.97-56.16-2.28-77.12-13.38-8.43-4.46-33.36-19.1-37.89-26.38-4.65-7.48,2.41-21.06,10.3-23.97,7.04-2.6,28.86-.78,36.49,1.28,3.37.91,15.61,12.22,20.13,15.22,19.42,12.89,44.26,22.78,67.9,21.67Z"/>
</svg>